# xmcd
#
# Track frame offsets: 
#        150
#        42822
#        67699
#        86864
#        97873
#        116750
#        135404
#        146162
#        167914
#        186428
#        205202
#        217173
#        234318
#        262906
#
# Disc length: 3916 seconds
#
# Revision: 0
# Processed by: cddbd v1.5.2PL0 Copyright (c) Steve Scherf et al.
# Submitted via: ExactAudioCopy v0.99pb4
#
DISCID=c80f4a0e
DTITLE=Shuggie Otis - Shuggie's Boogie: Shuggie Otis Plays The Blues
DYEAR=2009
DGENRE=Blues
TTITLE0=12:15 Slow Goonbash Blues
TTITLE1=Shuggie's Boogie
TTITLE2=Gospel Groove
TTITLE3=The Hawks
TTITLE4=Me And My Woman
TTITLE5=I Can Stand To See You Die
TTITLE6=I Got The Walkin' Blues
TTITLE7=Purple
TTITLE8=Cold Shot
TTITLE9=Sweet Thang
TTITLE10=Bootie Cooler
TTITLE11=Shuggie's Old Time Slide Boogie
TTITLE12=Shuggie's Shuffle
TTITLE13=Oxford Gray
EXTD=
EXTT0=
EXTT1=
EXTT2=
EXTT3=
EXTT4=
EXTT5=
EXTT6=
EXTT7=
EXTT8=
EXTT9=
EXTT10=
EXTT11=
EXTT12=
EXTT13=
PLAYORDER=
